<svg width="45" height="48" viewBox="0 0 45 48" fill="none" xmlns="http://www.w3.org/2000/svg">
<path fill-rule="evenodd" clip-rule="evenodd" d="M22.4952 0C10.0766 0 0 9.0176 0 20.1329C0 31.2574 16.6805 48 22.4952 48C28.3195 48 45 31.2574 45 20.1329C45 9.0176 34.9266 0 22.4952 0ZM18.8904 32.5469C17.8724 33.5095 14.3353 31.7266 11.0044 28.5482C7.66698 25.3819 5.79211 22.0279 6.81008 21.0592C7.82483 20.0875 11.3587 21.8735 14.6929 25.0458C18.0206 28.2182 19.9084 31.5692 18.8904 32.5469ZM26.0387 32.5227C25.0079 31.554 26.9085 28.2061 30.2942 25.0368C33.6735 21.8674 37.246 20.0845 38.2833 21.0592C39.3142 22.0218 37.4103 25.3697 34.0311 28.536C30.6486 31.7054 27.0696 33.4822 26.0387 32.5227V32.5227Z" fill="black"/>
</svg>
