<svg width="88" height="88" viewBox="0 0 88 88" fill="none" xmlns="http://www.w3.org/2000/svg">
<path d="M43.8956 21.9377C31.5029 21.9377 21.507 31.9337 21.507 44.3263C21.507 56.719 31.5029 66.715 43.8956 66.715C56.2883 66.715 66.2843 56.719 66.2843 44.3263C66.2843 31.9337 56.2883 21.9377 43.8956 21.9377ZM43.8956 58.8819C35.8871 58.8819 29.3401 52.3543 29.3401 44.3263C29.3401 36.2984 35.8677 29.7708 43.8956 29.7708C51.9236 29.7708 58.4512 36.2984 58.4512 44.3263C58.4512 52.3543 51.9041 58.8819 43.8956 58.8819ZM72.4222 21.0219C72.4222 23.9252 70.0839 26.2439 67.2001 26.2439C64.2968 26.2439 61.978 23.9057 61.978 21.0219C61.978 18.138 64.3163 15.7998 67.2001 15.7998C70.0839 15.7998 72.4222 18.138 72.4222 21.0219ZM87.2505 26.3219C86.9193 19.3266 85.3215 13.1303 80.1968 8.02514C75.0917 2.91998 68.8953 1.32218 61.9001 0.971445C54.6905 0.562253 33.0813 0.562253 25.8717 0.971445C18.8959 1.3027 12.6996 2.90049 7.57494 8.00565C2.4503 13.1108 0.871986 19.3072 0.52125 26.3024C0.112057 33.512 0.112057 55.1212 0.52125 62.3308C0.8525 69.326 2.4503 75.5224 7.57494 80.6275C12.6996 85.7327 18.8764 87.3305 25.8717 87.6812C33.0813 88.0904 54.6905 88.0904 61.9001 87.6812C68.8953 87.35 75.0917 85.7522 80.1968 80.6275C85.302 75.5224 86.8998 69.326 87.2505 62.3308C87.6597 55.1212 87.6597 33.5315 87.2505 26.3219ZM77.9365 70.0665C76.4167 73.8856 73.4744 76.8279 69.6358 78.3672C63.8876 80.647 50.2478 80.1209 43.8956 80.1209C37.5434 80.1209 23.8842 80.6275 18.1555 78.3672C14.3364 76.8474 11.3941 73.9051 9.85473 70.0665C7.57494 64.3183 8.10105 50.6786 8.10105 44.3263C8.10105 37.9741 7.59443 24.3149 9.85473 18.5862C11.3746 14.7671 14.3169 11.8248 18.1555 10.2854C23.9037 8.00565 37.5434 8.53176 43.8956 8.53176C50.2478 8.53176 63.9071 8.02514 69.6358 10.2854C73.4549 11.8053 76.3972 14.7476 77.9365 18.5862C80.2163 24.3344 79.6902 37.9741 79.6902 44.3263C79.6902 50.6786 80.2163 64.3378 77.9365 70.0665Z" fill="#D2FF50"/>
</svg>
