<svg width="97" height="97" viewBox="0 0 97 97" fill="none" xmlns="http://www.w3.org/2000/svg">
<path d="M32.1811 58.4303C24.6428 58.9151 17.8016 61.7861 13.9198 72.0149C13.4782 73.1818 12.4166 73.8901 11.1784 73.8901C9.09094 73.8901 2.63683 68.6911 0.797363 67.436C0.799242 82.909 7.92601 96.5086 24.8495 96.5086C39.103 96.5086 48.8997 88.2846 48.8997 73.9258C48.8997 73.3415 48.7776 72.7834 48.7175 72.2104L32.1811 58.4303ZM86.8334 0.307617C83.9849 0.307617 81.315 1.56838 79.2782 3.39845C40.8711 37.7076 36.8746 38.5137 36.8746 48.6129C36.8746 51.187 37.4853 53.6409 38.5149 55.8844L50.5062 65.8765C51.8609 66.2147 53.257 66.4458 54.7131 66.4458C66.3831 66.4458 73.1473 57.9023 94.3885 18.2589C95.7752 15.5626 97.0003 12.6503 97.0003 9.61769C97.0003 4.18572 92.115 0.307617 86.8334 0.307617Z" fill="#D2FF50"/>
</svg>
