<svg width="98" height="98" viewBox="0 0 98 98" fill="none" xmlns="http://www.w3.org/2000/svg">
<path d="M26.6437 41.0902L11.7124 18.1459C21.0152 6.57607 34.9693 0.204839 49.2362 0.146208C57.5032 0.0875767 65.946 2.19829 73.6267 6.6347C82.1086 11.5597 88.558 18.6345 92.6622 26.7647L52.5391 24.6539C41.1842 23.9895 30.3766 30.3802 26.6437 41.0902ZM33.0736 48.6145C33.0736 57.6436 40.3829 64.9529 49.4121 64.9529C58.4413 64.9529 65.7506 57.6436 65.7506 48.6145C65.7506 39.5853 58.4413 32.276 49.4121 32.276C40.3829 32.276 33.0736 39.5657 33.0736 48.6145ZM94.6166 31.1815L67.3141 32.5887C74.7211 41.2465 74.8384 53.7349 68.604 63.3113L46.6955 97.0045C55.7833 97.4931 65.1447 95.4997 73.6267 90.5747C94.6166 78.4576 103.118 53.0509 94.6166 31.1815ZM27.0737 57.9172L8.83948 22.0546C3.85585 29.6767 0.943848 38.8231 0.943848 48.6145C0.943848 72.8486 18.6895 92.9199 41.8878 96.4769L54.3371 72.0864C43.08 74.1971 32.2137 68.0213 27.0737 57.9172Z" fill="#D2FF50"/>
</svg>
